<?xml version="1.0" encoding="UTF-8" standalone="no"?>
<!DOCTYPE svg PUBLIC "-//W3C//DTD SVG 1.1//EN" "http://www.w3.org/Graphics/SVG/1.1/DTD/svg11.dtd">
<svg width="100%" height="100%" viewBox="0 0 1080 1080" version="1.1" xmlns="http://www.w3.org/2000/svg" xmlns:xlink="http://www.w3.org/1999/xlink" xml:space="preserve" xmlns:serif="http://www.serif.com/" style="fill-rule:evenodd;clip-rule:evenodd;stroke-miterlimit:10;">
    <g transform="matrix(1,0,0,1,-1134,0)">
        <g id="Original-2" serif:id="Original 2" transform="matrix(1,0,0,1,-0.339752,0)">
            <rect x="1134.34" y="0" width="1080" height="1080" style="fill:none;"/>
            <clipPath id="_clip1">
                <rect x="1134.34" y="0" width="1080" height="1080"/>
            </clipPath>
            <g clip-path="url(#_clip1)">
                <g transform="matrix(0,-2.815722,-2.815722,0,1670.66712,41.291483)">
                    <path d="M-179.129,-179.129C-278.058,-179.129 -358.257,-98.931 -358.257,-0C-358.257,98.929 -278.058,179.129 -179.129,179.129C-80.198,179.129 -0,98.929 -0,-0C-0,-98.931 -80.198,-179.129 -179.129,-179.129Z" style="fill:rgb(18,19,63);fill-rule:nonzero;"/>
                </g>
                <g transform="matrix(1.784483,0,0,1.784483,449.061758,565.26008)">
                    <g transform="matrix(1,0,0,1,497.1612,-69.39265)">
                        <path d="M0,4.219L0,0.001C0,-5.578 -1.5,-8.485 -5.86,-8.485L-10.784,-8.485L-10.784,12.752L-5.86,12.752C-1.5,12.752 0,9.798 0,4.219M-17.346,18.283L-17.346,-14.064L-5.86,-14.064C1.454,-14.064 6.566,-10.313 6.566,0.001L6.566,4.219C6.566,14.486 1.454,18.283 -5.86,18.283L-17.346,18.283Z" style="fill:white;fill-rule:nonzero;"/>
                    </g>
                    <g transform="matrix(1,0,0,1,521.0421,-58.04595)">
                        <path d="M0,-9.987C-0.611,-10.879 -1.454,-11.767 -2.955,-11.767C-5.207,-11.767 -6.707,-10.128 -6.707,-6.845L-6.707,6.937L-12.708,6.937L-12.708,-16.503L-6.844,-16.503L-6.844,-14.535C-6.05,-15.707 -4.501,-16.924 -1.737,-16.924C1.076,-16.924 3.187,-15.707 4.592,-13.268L0,-9.987Z" style="fill:white;fill-rule:nonzero;"/>
                    </g>
                    <g transform="matrix(-1,0,0,1,1058.88,-11353.30125)">
                        <rect x="525.783" y="11294.879" width="7.314" height="7.313" style="fill:white;"/>
                    </g>
                    <g transform="matrix(1,0,0,1,490.7494,1.73775)">
                        <path d="M0,-11.092L18.675,-11.092L18.675,-32.496L29.609,-32.496L29.609,21.404L18.675,21.404L18.675,-1.876L0,-1.876L0,21.404L-10.934,21.404L-10.934,-32.496L0,-32.496L0,-11.092Z" style="fill:white;fill-rule:nonzero;"/>
                    </g>
                    <g transform="matrix(1,0,0,1,544.0576,23.84405)">
                        <path d="M0,-57.337L11.169,-57.337L4.058,-44.994L-5.47,-44.994L0,-57.337ZM-5.782,-24.841L6.481,-24.841C6.246,-29.917 4.217,-32.028 0.464,-32.028C-3.517,-32.028 -5.394,-29.293 -5.782,-24.841M15.933,-6.64C13.198,-1.873 8.669,0 1.641,0C-10.075,0 -15.704,-7.575 -15.704,-17.653L-15.704,-22.965C-15.704,-34.76 -9.764,-40.463 0.388,-40.463C11.405,-40.463 16.48,-34.058 16.48,-22.186L16.48,-17.733L-5.782,-17.733C-5.705,-12.343 -3.988,-8.437 1.558,-8.437C5.699,-8.437 7.028,-9.687 8.51,-11.795L15.933,-6.64Z" style="fill:white;fill-rule:nonzero;"/>
                    </g>
                    <g transform="matrix(1,0,0,1,597.9764,-9.97865)">
                        <path d="M0,27.183C-2.735,31.79 -7.187,33.823 -14.216,33.823C-25.385,33.823 -31.638,26.791 -31.638,16.169L-31.638,10.858C-31.638,-0.546 -25.309,-6.64 -13.669,-6.64C-7.652,-6.64 -2.735,-4.455 0,-0.159L-7.499,5.077C-8.829,3.204 -10.781,1.794 -13.904,1.794C-19.527,1.794 -21.715,5.232 -21.715,11.482L-21.715,15.542C-21.715,21.168 -20.233,25.386 -13.904,25.386C-10.934,25.386 -8.829,24.371 -7.423,22.028L0,27.183Z" style="fill:white;fill-rule:nonzero;"/>
                    </g>
                    <g transform="matrix(1,0,0,1,599.7128,14.54925)">
                        <path d="M0,-30.465L4.999,-30.465L4.999,-39.058L14.922,-39.058L14.922,-30.465L22.574,-30.465L22.574,-22.03L14.922,-22.03L14.922,-5.703C14.922,-1.798 15.698,-0.156 19.374,-0.156L22.574,-0.156L22.574,8.593L18.357,8.593C8.905,8.593 4.999,5.936 4.999,-4.142L4.999,-22.03L0,-22.03L0,-30.465Z" style="fill:white;fill-rule:nonzero;"/>
                    </g>
                    <g transform="matrix(1,0,0,1,650.8902,1.66065)">
                        <path d="M0,3.903L0,-0.158C0,-6.408 -2.029,-9.845 -6.952,-9.845C-11.875,-9.845 -13.904,-6.408 -13.904,-0.158L-13.904,3.903C-13.904,9.529 -12.499,13.747 -6.952,13.747C-1.482,13.747 0,9.529 0,3.903M9.923,4.218C9.923,14.92 4.84,22.183 -6.952,22.183C-18.28,22.183 -23.827,15.152 -23.827,4.218L-23.827,-0.469C-23.827,-12.186 -17.651,-18.28 -6.952,-18.28C3.905,-18.28 9.923,-12.186 9.923,-0.469L9.923,4.218Z" style="fill:white;fill-rule:nonzero;"/>
                    </g>
                    <g transform="matrix(1,0,0,1,688.6467,11.58065)">
                        <path d="M0,-16.639C-1.018,-18.124 -2.423,-19.606 -4.923,-19.606C-8.676,-19.606 -11.176,-16.874 -11.176,-11.404L-11.176,11.561L-21.174,11.561L-21.174,-27.496L-11.405,-27.496L-11.405,-24.217C-10.082,-26.17 -7.499,-28.2 -2.894,-28.2C1.794,-28.2 5.311,-26.17 7.652,-22.106L0,-16.639Z" style="fill:white;fill-rule:nonzero;"/>
                    </g>
                    <g transform="matrix(1,0,0,1,507.8594,83.40975)">
                        <path d="M0,-25.93C-2.341,-29.604 -5.152,-31.401 -10.622,-31.401C-15.545,-31.401 -18.198,-29.136 -18.198,-25.463C-18.198,-21.245 -14.763,-19.369 -7.576,-17.573C3.67,-14.761 8.752,-10.544 8.752,-1.013C8.752,7.816 2.811,14.688 -9.84,14.688C-19.292,14.688 -25.856,12.112 -30.62,5.86L-22.262,0.082C-19.374,3.675 -16.092,5.472 -10.546,5.472C-4.293,5.472 -2.188,2.737 -2.188,-0.545C-2.188,-4.295 -4.452,-6.404 -13.198,-8.667C-23.827,-11.479 -29.138,-16.558 -29.138,-25.463C-29.138,-33.977 -23.515,-40.618 -10.699,-40.618C-2.112,-40.618 4.376,-37.726 8.205,-31.791L0,-25.93Z" style="fill:white;fill-rule:nonzero;"/>
                    </g>
                    <g transform="matrix(1,0,0,1,537.5698,98.09795)">
                        <path d="M0,-57.338L11.169,-57.338L4.064,-44.995L-5.464,-44.995L0,-57.338ZM6.093,-16.795L-0.464,-16.795C-4.529,-16.795 -6.329,-15.466 -6.329,-12.419C-6.329,-9.451 -4.058,-8.046 -0.623,-8.046C3.905,-8.046 6.093,-9.999 6.093,-15.31L6.093,-16.795ZM-1.641,-24.139L6.093,-24.139L6.093,-26.402C6.093,-30.778 4.764,-32.185 -0.859,-32.185C-4.688,-32.185 -6.558,-31.638 -8.199,-29.059L-15.234,-33.982C-12.34,-38.745 -7.964,-40.463 0.083,-40.463C10.158,-40.463 15.857,-37.495 15.857,-26.326L15.857,-0.702L6.093,-0.702L6.093,-4.141C4.535,-1.485 2.188,0 -2.341,0C-10.463,0 -16.092,-4.296 -16.092,-12.263C-16.092,-20.545 -9.84,-24.139 -1.641,-24.139" style="fill:white;fill-rule:nonzero;"/>
                    </g>
                    <g transform="matrix(1,0,0,1,561.4156,96.69315)">
                        <path d="M0,-38.355L9.77,-38.355L9.77,-35.077C11.252,-37.029 14.375,-39.058 18.751,-39.058C26.638,-39.058 33.043,-35.308 33.043,-23.748L33.043,0.703L23.127,0.703L23.127,-22.186C23.127,-28.28 20.939,-30.464 16.875,-30.464C12.263,-30.464 9.999,-27.421 9.999,-22.263L9.999,0.703L0,0.703L0,-38.355Z" style="fill:white;fill-rule:nonzero;"/>
                    </g>
                    <g transform="matrix(1,0,0,1,632.7561,64.27625)">
                        <path d="M0,27.181C-2.735,31.789 -7.187,33.822 -14.216,33.822C-25.385,33.822 -31.638,26.79 -31.638,16.168L-31.638,10.857C-31.638,-0.548 -25.309,-6.641 -13.669,-6.641C-7.652,-6.641 -2.735,-4.457 0,-0.16L-7.499,5.076C-8.828,3.202 -10.781,1.793 -13.904,1.793C-19.527,1.793 -21.715,5.231 -21.715,11.48L-21.715,15.541C-21.715,21.167 -20.233,25.384 -13.904,25.384C-10.934,25.384 -8.828,24.37 -7.423,22.026L0,27.181Z" style="fill:white;fill-rule:nonzero;"/>
                    </g>
                    <g transform="matrix(1,0,0,1,637.3803,97.39535)">
                        <path d="M0,-53.9L9.999,-53.9L9.999,-36.01C11.487,-37.963 14.222,-39.76 18.751,-39.76C26.638,-39.76 33.043,-36.01 33.043,-24.45L33.043,0L23.127,0L23.127,-22.888C23.127,-28.982 20.939,-31.167 16.875,-31.167C12.27,-31.167 9.999,-28.124 9.999,-22.965L9.999,0L0,0L0,-53.9Z" style="fill:white;fill-rule:nonzero;"/>
                    </g>
                    <g transform="matrix(1,0,0,1,687.0057,82.47605)">
                        <path d="M0,-9.219L12.263,-9.219C12.028,-14.295 9.999,-16.406 6.253,-16.406C2.264,-16.406 0.388,-13.672 0,-9.219M21.715,8.981C18.98,13.749 14.451,15.622 7.423,15.622C-4.293,15.622 -9.922,8.047 -9.922,-2.032L-9.922,-7.343C-9.922,-19.139 -3.982,-24.841 6.17,-24.841C17.186,-24.841 22.262,-18.436 22.262,-6.564L22.262,-2.112L0,-2.112C0.076,3.279 1.794,7.184 7.34,7.184C11.481,7.184 12.81,5.935 14.292,3.826L21.715,8.981Z" style="fill:white;fill-rule:nonzero;"/>
                    </g>
                    <g transform="matrix(1,0,0,1,731.9434,88.96175)">
                        <path d="M0,-22.19L-16.951,-22.19L-16.951,-30.624L12.893,-30.624L12.893,-23.671L-4.058,-0.003L13.44,-0.003L13.44,8.434L-17.186,8.434L-17.186,1.482L0,-22.19Z" style="fill:white;fill-rule:nonzero;"/>
                    </g>
                    <g transform="matrix(1,0,0,1,812.9011,97.39535)">
                        <path d="M0,-53.9L0,0L-9.14,0L-30.149,-33.355L-30.149,0L-40.542,0L-40.542,-53.9L-31.479,-53.9L-10.387,-20.078L-10.387,-53.9L0,-53.9Z" style="fill:white;fill-rule:nonzero;"/>
                    </g>
                    <g transform="matrix(-1,0,0,1,1658.203,-11061.16625)">
                        <rect x="823.008" y="11146.374" width="12.187" height="12.188" style="fill:white;"/>
                    </g>
                    <g transform="matrix(1,0,0,1,648.6003,-174.27265)">
                        <path d="M0,-42.983C-1.516,-43.029 -2.784,-42.044 -2.272,-40.617L12.919,1.684C12.919,1.684 17.171,11.182 26.99,5.847C35.143,1.416 48.576,-22.587 54.146,-29.118C55.26,-30.424 55.628,-31.903 56.031,-33.742L60.216,-52.043C59.624,-53.571 57.774,-54.165 56.403,-53.266L33.044,-43.83C33.044,-43.83 28.199,-41.013 21.346,-41.193C14.985,-41.36 5.804,-42.81 0,-42.983" style="fill:white;fill-rule:nonzero;"/>
                    </g>
                    <g transform="matrix(1,0,0,1,678.7695,-169.11725)">
                        <path d="M0,107.802L8.883,109.125C9.249,109.18 9.632,108.764 9.738,108.197L29.789,1.125C29.895,0.559 29.684,0.054 29.319,0L20.435,-1.323C20.07,-1.378 19.687,-0.962 19.581,-0.394L-0.47,106.676C-0.576,107.243 -0.366,107.747 0,107.802" style="fill:white;fill-rule:nonzero;"/>
                    </g>
                    <g transform="matrix(1,0,0,1,721.1626,-18.07865)">
                        <path d="M0,-167.55L-29.042,8.065L9.09,-168.114C9.09,-168.114 4.141,-175.615 0,-167.55" style="fill:white;fill-rule:nonzero;"/>
                    </g>
                    <g transform="matrix(1,0,0,1,703.1238,-230.60215)">
                        <path d="M0,200.159L45.316,26.647C47.681,17.595 45.227,7.822 38.592,5.03C33.794,3.011 24.248,0 17.87,1.969C11.063,4.069 6.59,36.663 5.373,48.683C5.276,49.641 6.721,49.883 7.072,48.985C10.107,41.239 10.675,23.277 18.482,21.804C28.688,19.877 34.537,30.687 32.651,44.292C30.765,57.895 0,200.159 0,200.159" style="fill:white;fill-rule:nonzero;"/>
                    </g>
                    <g transform="matrix(1,0,0,1,615.7105,-228.11285)">
                        <path d="M0,-55.592L28.683,2.789C28.999,3.432 29.625,3.866 30.338,3.935L57.113,6.551C58.701,6.706 59.859,5.081 59.195,3.631L29.585,-60.986C29.204,-61.816 28.323,-62.298 27.417,-62.172L1.569,-58.552C0.175,-58.357 -0.621,-56.856 0,-55.592" style="fill:white;fill-rule:nonzero;"/>
                    </g>
                    <g transform="matrix(1,0,0,1,884.3192,-64.14565)">
                        <path d="M0,-40.944C1.559,-40.839 2.761,-39.702 2.093,-38.29L-17.723,3.572C-17.723,3.572 -23.035,12.886 -32.57,6.431C-40.489,1.071 -53.118,-24.749 -58.176,-32.005C-59.188,-33.457 -58.798,-35.161 -58.516,-36.911L-51.401,-51.897C-50.641,-53.406 -48.684,-53.83 -47.369,-52.77L-33.804,-45.122C-33.804,-45.122 -29.117,-41.749 -22.071,-41.246C-15.53,-40.78 -5.97,-41.347 0,-40.944" style="fill:white;fill-rule:nonzero;"/>
                    </g>
                    <g transform="matrix(1,0,0,1,766.4236,-84.13325)">
                        <path d="M0,99.026L-7.509,94.735C-7.818,94.558 -7.86,94.016 -7.602,93.523L41.007,0.572C41.264,0.08 41.724,-0.176 42.033,0L49.542,4.291C49.851,4.467 49.893,5.009 49.635,5.503L1.026,98.454C0.769,98.946 0.309,99.202 0,99.026" style="fill:white;fill-rule:nonzero;"/>
                    </g>
                    <g transform="matrix(1,0,0,1,808.3998,51.77815)">
                        <path d="M0,-156.192L-90.666,8.568L-6.542,-162.033C-6.542,-162.033 1.672,-164.76 0,-156.192" style="fill:white;fill-rule:nonzero;"/>
                    </g>
                    <g transform="matrix(1,0,0,1,729.6078,-148.71655)">
                        <path d="M0,172.459L69.071,14.189C72.674,5.932 80.352,0 87.035,1.84C91.868,3.17 100.884,6.578 104.537,11.867C108.435,17.511 92.404,44.836 86.165,54.654C85.667,55.437 84.431,54.759 84.699,53.871C87.018,46.203 97.287,32.274 92.258,26.509C85.685,18.972 74.819,23.667 68.143,35.083C61.467,46.499 0,172.459 0,172.459" style="fill:white;fill-rule:nonzero;"/>
                    </g>
                    <g transform="matrix(1,0,0,1,915.0329,-139.35335)">
                        <path d="M0,-19.083L-25.185,29.054C-25.537,29.729 -26.236,30.151 -26.997,30.151L-52.742,30.151C-54.292,30.151 -55.278,28.495 -54.541,27.132L-14.022,-47.703C-13.193,-49.234 -10.951,-49.095 -10.318,-47.472L0.093,-20.774C0.308,-20.224 0.274,-19.607 0,-19.083" style="fill:white;fill-rule:nonzero;"/>
                    </g>
                    <g transform="matrix(0,-1,-1,0,683.6729,-290.49825)">
                        <path d="M-282.645,-282.645C-438.746,-282.645 -565.29,-156.101 -565.29,0C-565.29,156.1 -438.746,282.645 -282.645,282.645C-126.544,282.645 0,156.1 0,0C0,-156.101 -126.544,-282.645 -282.645,-282.645Z" style="fill:none;fill-rule:nonzero;stroke:white;stroke-width:13.14px;"/>
                    </g>
                    <g transform="matrix(1,0,0,1,780.5969,-244.34735)">
                        <path d="M0,-8.713L2.126,-13.545L21.778,-4.899C18.31,-3.385 9.544,-4.817 0,-8.713M-18.621,-22.674L0.497,-14.262L-1.639,-9.409C-11.706,-13.783 -18.893,-19.404 -18.621,-22.674M3.544,-21.186L1.214,-15.891L-17.678,-24.203C-14.863,-26.154 -6.163,-24.967 3.544,-21.186M23.219,-6.209L2.843,-15.174L5.196,-20.523C16.473,-15.835 24.498,-9.477 23.219,-6.209M7.872,-25.508C-20.499,-37.124 -79.451,-48.072 -79.451,-48.072C-79.451,-48.072 -85.205,-42.408 -73.434,-37.589C-61.664,-32.77 -68.476,-10.966 -50.367,-3.552C-32.257,3.863 -23.659,-11.329 -2.381,-2.617C18.897,6.095 17.316,24.16 35.879,31.76C54.44,39.359 68.987,21.257 80.475,25.96C91.964,30.663 91.983,22.117 91.983,22.117C91.983,22.117 36.244,-13.892 7.872,-25.508" style="fill:white;fill-rule:nonzero;"/>
                    </g>
                </g>
            </g>
        </g>
    </g>
</svg>
